<?xml version="1.0" encoding="UTF-8"?>
<svg id="Layer_2" data-name="Layer 2" xmlns="http://www.w3.org/2000/svg" width="512" height="512" viewBox="0 0 512 512">
  <g id="favicon">
    <g id="box-512">
      <rect id="frame" width="512" height="512" rx="30" ry="30" fill="#3e3f49" stroke-width="0"/>
      <g opacity=".98">
        <path d="M119.15,420.83c0-7.64.69-13.73,2.09-18.25,1.38-4.51,3.47-7.3,6.26-8.34l36.49-11.47-9.38,10.95V115.33l9.9,10.95-45.36-10.95c0-6.26.78-11.64,2.35-16.16,1.56-4.51,4.08-8.68,7.56-12.51h147.02c31.97,0,56.91,6.44,74.81,19.29,17.9,12.86,26.85,30.42,26.85,52.65,0,13.55-3.22,25.99-9.64,37.27-6.44,11.3-15.56,20.59-27.37,27.89-11.82,7.3-25.54,11.99-41.18,14.08l-1.56-4.69c18.42,1.39,34.67,6.26,48.74,14.6,14.08,8.34,25.11,18.86,33.1,31.54,7.99,12.69,11.99,26.85,11.99,42.49,0,19.81-4.61,37.19-13.82,52.13-9.21,14.95-22.34,26.51-39.36,34.67-17.03,8.17-37.2,12.25-60.47,12.25H119.15ZM221.85,226.37l-8.34-10.43c2.43,1.39,5.99,2.53,10.69,3.39,4.69.87,9.99,1.48,15.9,1.83,5.9.35,11.47.52,16.68.52,17.38,0,30.76-4.25,40.14-12.77,9.38-8.51,14.08-21.11,14.08-37.8s-4.52-29.19-13.55-37.54c-9.04-8.34-22.42-12.51-40.14-12.51-6.96,0-13.81.7-20.59,2.09-6.78,1.39-13.47,3.31-20.07,5.73l5.21-5.21v102.7ZM266.17,386.42c18.42,0,32.49-5.29,42.23-15.9,9.73-10.6,14.6-25.98,14.6-46.14,0-22.24-5.73-39.01-17.2-50.31-11.47-11.29-28.67-16.94-51.61-16.94h-37.54l5.21-5.21v130.85l-5.21-6.78c6.95,3.13,14.94,5.65,23.98,7.56,9.03,1.92,17.54,2.87,25.54,2.87Z" fill="#fff" stroke-width="0"/>
      </g>
    </g>
  </g>
</svg>